<?xml version="1.0" encoding="UTF-8"?>
<svg id="Calque_2" data-name="Calque 2" xmlns="http://www.w3.org/2000/svg" viewBox="0 0 109.27 109.67">
  <defs>
    <style>
      .cls-1 {
        opacity: .36;
      }
    </style>
  </defs>
  <g id="Calque_1-2" data-name="Calque 1">
    <g class="cls-1">
      <circle cx="14.45" cy="14.45" r="14.45" transform="translate(-4.43 6.63) rotate(-22.5)"/>
      <circle cx="55.17" cy="14.45" r="14.45"/>
      <circle cx="94.82" cy="14.45" r="14.45"/>
      <circle cx="14.45" cy="54.84" r="14.45" transform="translate(-19.88 9.7) rotate(-22.5)"/>
      <circle cx="55.17" cy="54.84" r="14.45" transform="translate(-16.79 25.29) rotate(-22.5)"/>
      <circle cx="94.82" cy="54.84" r="14.45"/>
      <circle cx="14.45" cy="95.22" r="14.45"/>
      <circle cx="55.17" cy="95.22" r="14.45"/>
      <circle cx="94.82" cy="95.22" r="14.45"/>
    </g>
    <path d="m86.55,61.17c-.4,1.45-.92,2.86-1.61,4.2-1.55,3.01-3.68,5.61-6.4,7.8-2.71,2.19-5.89,3.89-9.54,5.1-3.65,1.22-7.68,1.78-12.09,1.68-4.34-.09-8.3-.83-11.89-2.2-3.59-1.37-6.71-3.19-9.36-5.46-2.66-2.27-4.65-4.96-5.99-8.07-.43-.99-.76-2.02-1.04-3.06H10.79c.49,3.14,1.34,6.16,2.58,9.04,2.17,5.07,5.35,9.52,9.53,13.35,4.18,3.82,9.12,6.85,14.83,9.06,5.7,2.22,12.02,3.4,18.95,3.55,6.85.15,13.17-.76,18.97-2.73,5.79-1.97,10.84-4.77,15.15-8.41,4.31-3.64,7.67-7.94,10.11-12.92,1.68-3.44,2.8-7.09,3.38-10.95h-17.73Z"/>
    <path d="m23.54,54.19c.08-3.65.86-6.99,2.33-10,1.47-3.01,3.59-5.6,6.34-7.75,2.75-2.15,5.95-3.83,9.59-5.05,3.64-1.22,7.64-1.78,11.98-1.68,4.41.1,8.42.83,12.01,2.2,3.59,1.37,6.69,3.21,9.31,5.52,2.61,2.3,4.63,5,6.05,8.07,1.42,3.08,2.09,6.41,2.01,9.98-.04,1.98-.34,3.87-.83,5.68h17.73c.26-1.73.42-3.49.46-5.31.13-5.86-.92-11.33-3.13-16.41-2.21-5.08-5.39-9.52-9.54-13.35-4.14-3.82-9.07-6.84-14.77-9.06-5.7-2.22-12.02-3.4-18.95-3.56-6.85-.15-13.18.76-18.97,2.73-5.79,1.97-10.84,4.77-15.15,8.41-4.31,3.64-7.68,7.94-10.11,12.92-2.43,4.97-3.71,10.39-3.84,16.25-.06,2.53.12,4.98.49,7.36h17.84c-.61-2.22-.91-4.54-.86-6.98Z"/>
  </g>
</svg>